Coordinates
version=1
nRows=4
nColumns=63
inDegrees=yes

Units are S.I. units (second, meters, Newtons, ...)
If the header above contains a line with 'inDegrees', this indicates whether rotational values are in degrees (yes) or radians (no).

endheader
time	pelvis_tilt	pelvis_list	pelvis_rotation	pelvis_tx	pelvis_ty	pelvis_tz	hip_flexion_r	hip_adduction_r	hip_rotation_r	knee_angle_r	knee_angle_r_beta	ankle_angle_r	subtalar_angle_r	mtp_angle_r	hip_flexion_l	hip_adduction_l	hip_rotation_l	knee_angle_l	knee_angle_l_beta	ankle_angle_l	subtalar_angle_l	mtp_angle_l	L5_S1_Flex_Ext	L5_S1_Lat_Bending	L5_S1_axial_rotation	L4_L5_Flex_Ext	L4_L5_Lat_Bending	L4_L5_axial_rotation	L3_L4_Flex_Ext	L3_L4_Lat_Bending	L3_L4_axial_rotation	L2_L3_Flex_Ext	L2_L3_Lat_Bending	L2_L3_axial_rotation	L1_L2_Flex_Ext	L1_L2_Lat_Bending	L1_L2_axial_rotation	L1_T12_Flex_Ext	L1_T12_Lat_Bending	L1_T12_axial_rotation	Abs_r3	Abs_r2	Abs_r1	Abs_t1	Abs_t2	neck_flexion	neck_bending	neck_rotation	arm_flex_r	arm_add_r	arm_rot_r	elbow_flex_r	pro_sup_r	wrist_flex_r	wrist_dev_r	arm_flex_l	arm_add_l	arm_rot_l	elbow_flex_l	pro_sup_l	wrist_flex_l	wrist_dev_l
      7.11864407	      0.36033769	     -7.28977780	     97.80329833	      0.27157161	      0.80825525	      0.55471330	     -3.66777124	      1.55789694	      5.11682957	      0.84544697	      0.01475583	     27.40806450	     -8.06426622	      0.00000000	      2.13656036	     -0.50329998	      4.79572310	      6.74324817	      0.11769188	     36.10297392	      6.79962335	      0.00000000	     -0.09529862	      0.16803687	     -1.64897678	     -0.17697906	      0.22348904	     -1.75203783	     -0.15656610	      0.40856484	     -1.75203783	     -0.10891679	      0.40856484	     -1.44285468	     -0.08849429	      0.34266078	     -1.33979363	     -0.05445363	      0.26028911	     -1.23673258	     -0.68070848	      1.90086667	     -9.17111415	      0.00000000	      0.00000000	      3.85807290	      2.60278136	     -2.30289694	      7.90458247	    -21.41580134	     29.27060662	     98.54072610	     83.00677375	     10.74897035	     15.48029567	    -10.23616452	    -26.58840061	     18.53754517	    126.76760963	     88.76955397	     25.24058850	      9.24613670
      7.13559322	      0.41436932	     -7.16655676	     96.53491037	      0.27244544	      0.80838418	      0.55511894	     -3.60357757	      1.47310683	      5.94784184	      1.00948947	      0.01761891	     27.39012890	     -7.42406819	      0.00000000	      1.79370400	     -0.54163943	      3.27128239	      6.66407812	      0.11631010	     35.82490569	      6.60016556	      0.00000000	     -0.10582442	      0.19343536	     -1.45067345	     -0.19652653	      0.25726902	     -1.54134054	     -0.17385894	      0.47031873	     -1.54134054	     -0.12094673	      0.47031873	     -1.26933927	     -0.09826856	      0.39445338	     -1.17867218	     -0.06046807	      0.29963137	     -1.08800509	     -0.75589324	      2.18817944	     -8.06821052	      0.00000000	      0.00000000	      3.85393742	      3.06424434	     -1.52124643	      7.69008442	    -22.39236969	     30.14715484	     99.08020974	     76.32398226	      9.92291142	     18.86122063	     -8.20134253	    -27.25417817	     19.74283991	    129.01569298	     88.33009881	     27.52620460	     15.68319820
      7.15254237	      0.41871145	     -7.10723132	     96.01342404	      0.27269286	      0.80845566	      0.55541516	     -3.58505920	      1.41726366	      6.25171958	      1.10205900	      0.01923456	     27.33561898	     -7.30381415	      0.00000000	      1.68309352	     -0.51517098	      2.53195818	      6.77431587	      0.11823412	     35.54669112	      6.39018097	      0.00000000	     -0.09824468	      0.20880518	     -1.43849913	     -0.18245020	      0.27771089	     -1.52840532	     -0.16140619	      0.50768892	     -1.52840532	     -0.11228385	      0.50768892	     -1.25868674	     -0.09123001	      0.42579553	     -1.16878054	     -0.05613701	      0.32343923	     -1.07887435	     -0.70175196	      2.36204600	     -8.00050060	      0.00000000	      0.00000000	      3.74518682	      3.14762645	     -0.50414114	      7.74268763	    -23.08478272	     31.14739799	     99.18810693	     75.31802928	      9.87947179	     19.29766212	     -6.39798677	    -28.43883088	     21.22559868	    130.62512464	     88.06543510	     28.65187940	     16.79342936
      7.16949153	      0.51248137	     -7.00152096	     94.92611136	      0.27385473	      0.80848384	      0.55510644	     -3.58570432	      1.43181587	      7.19653451	      1.23265063	      0.02151381	     27.20169825	     -7.24234768	      0.00000000	      1.29480049	     -0.61974031	      1.08101691	      6.51934665	      0.11378406	     35.39629537	      6.63850790	      0.00000000	     -0.10190158	      0.22847134	     -1.26780258	     -0.18924142	      0.30386688	     -1.34704024	     -0.16741410	      0.55550521	     -1.34704024	     -0.11646331	      0.55550521	     -1.10932725	     -0.09462580	      0.46589875	     -1.03008959	     -0.05822656	      0.35390210	     -0.95085193	     -0.72787277	      2.58451345	     -7.05113759	      0.00000000	      0.00000000	      3.86815246	      3.17580476	     -0.31930790	      7.53578051	    -23.85955622	     31.82949946	     99.61494387	     72.85205005	      9.24505286	     20.02520834	     -4.45716008	    -29.21102835	     22.64678020	    132.57198628	     86.98978284	     30.50245073	     20.30682231
